<?xml version="1.0" encoding="UTF-8" standalone="no"?>
<!-- Created with Inkscape (http://www.inkscape.org/) -->

<svg
   xmlns:dc="http://purl.org/dc/elements/1.1/"
   xmlns:cc="http://creativecommons.org/ns#"
   xmlns:rdf="http://www.w3.org/1999/02/22-rdf-syntax-ns#"
   xmlns:svg="http://www.w3.org/2000/svg"
   xmlns="http://www.w3.org/2000/svg"
   xmlns:sodipodi="http://sodipodi.sourceforge.net/DTD/sodipodi-0.dtd"
   xmlns:inkscape="http://www.inkscape.org/namespaces/inkscape"
   width="299.93683"
   height="135.15269"
   viewBox="0 0 79.358283 35.759152"
   version="1.1"
   id="svg8"
   inkscape:version="0.92.3 (unknown)"
   sodipodi:docname="deadian.svg">
  <defs
     id="defs2" />
  <sodipodi:namedview
     id="base"
     pagecolor="#ffffff"
     bordercolor="#666666"
     borderopacity="1.0"
     inkscape:pageopacity="0.0"
     inkscape:pageshadow="2"
     inkscape:zoom="0.70000001"
     inkscape:cx="-125.92277"
     inkscape:cy="-120.66464"
     inkscape:document-units="px"
     inkscape:current-layer="g868"
     showgrid="false"
     inkscape:window-width="1366"
     inkscape:window-height="725"
     inkscape:window-x="0"
     inkscape:window-y="0"
     inkscape:window-maximized="1"
     units="px" />
  <metadata
     id="metadata5">
    <rdf:RDF>
      <cc:Work
         rdf:about="">
        <dc:format>image/svg+xml</dc:format>
        <dc:type
           rdf:resource="http://purl.org/dc/dcmitype/StillImage" />
        <dc:title />
      </cc:Work>
    </rdf:RDF>
  </metadata>
  <g
     inkscape:label="Layer 1"
     inkscape:groupmode="layer"
     id="layer1"
     transform="translate(-141.10766,132.59567)">
    <g
       transform="matrix(0.0625,0,0,0.0625,151.04365,-100.51688)"
       id="g868">
      <circle
         style="opacity:1;fill:#ffffff;fill-opacity:1;fill-rule:nonzero;stroke:#0d4365;stroke-width:10.68533039;stroke-linecap:square;stroke-linejoin:miter;stroke-miterlimit:4;stroke-dasharray:none;stroke-opacity:1;paint-order:normal"
         id="circle981"
         cx="975.21436"
         cy="-132.04517"
         r="130.19972"
         inkscape:export-filename="/home/eud/Documents/School/zProjects/Kerde/W3s/kerde.bitbucket.io/img/di-R.png"
         inkscape:export-xdpi="403.38068"
         inkscape:export-ydpi="403.38068" />
      <circle
         r="150.53206"
         cy="-356.55157"
         cx="125.29729"
         id="circle859"
         style="opacity:1;fill:#ffffff;fill-opacity:1;fill-rule:nonzero;stroke:#0d4365;stroke-width:12.35397911;stroke-linecap:square;stroke-linejoin:miter;stroke-miterlimit:4;stroke-dasharray:none;stroke-opacity:1;paint-order:normal"
         inkscape:export-filename="/home/eud/Documents/School/zProjects/Kerde/W3s/kerde.bitbucket.io/img/diL-R.png"
         inkscape:export-xdpi="331.94766"
         inkscape:export-ydpi="331.94766" />
      <text
         xml:space="preserve"
         style="font-style:normal;font-variant:normal;font-weight:normal;font-stretch:normal;font-size:79.02222443px;line-height:1.25;font-family:'Liberation Serif';-inkscape-font-specification:'Liberation Serif';letter-spacing:0px;word-spacing:0px;fill:#0d4365;fill-opacity:1;stroke:none;stroke-width:2.11666679"
         x="-8.0860529"
         y="-325.61438"
         id="text857"
         inkscape:export-filename="/home/eud/Documents/School/zProjects/Kerde/W3s/kerde.bitbucket.io/img/diL-P.png"
         inkscape:export-xdpi="403.38068"
         inkscape:export-ydpi="403.38068"><tspan
           sodipodi:role="line"
           id="tspan855"
           x="-8.0860529"
           y="-325.61438"
           style="font-style:normal;font-variant:normal;font-weight:normal;font-stretch:normal;font-family:Kirvy;-inkscape-font-specification:Kirvy;fill:#0d4365;fill-opacity:1;stroke-width:2.11666679">deadian</tspan></text>
      <text
         id="text863"
         y="-289.26572"
         x="391.74915"
         style="font-style:normal;font-variant:normal;font-weight:normal;font-stretch:normal;font-size:79.02222443px;line-height:1.25;font-family:'Liberation Serif';-inkscape-font-specification:'Liberation Serif';letter-spacing:0px;word-spacing:0px;fill:#0d4365;fill-opacity:1;stroke:none;stroke-width:2.11666679"
         xml:space="preserve"><tspan
           style="font-style:normal;font-variant:normal;font-weight:normal;font-stretch:normal;font-family:Kirvy;-inkscape-font-specification:Kirvy;fill:#0d4365;fill-opacity:1;stroke-width:2.11666679"
           y="-289.26572"
           x="391.74915"
           id="tspan861"
           sodipodi:role="line">deadian</tspan></text>
      <g
         id="g900">
        <path
           d="m 410.21679,-176.08781 c 4.2672,4.2672 9.87777,6.55885 15.88346,6.55885 h 10.43094 v -61.95343 h -3.95111 v 14.46107 c 0,0 0.079,1.02729 -0.63218,1.73849 -0.47414,0.55316 -1.4224,0.86925 -2.60774,0.86925 h -3.23991 c -6.00569,0 -11.61626,2.29164 -15.88346,6.55884 -4.2672,4.2672 -6.55885,9.87778 -6.55885,15.88347 0,6.00569 2.29165,11.61626 6.55885,15.88346 z m 22.36329,-34.92782 v 37.53556 h -6.47983 c -10.19386,0 -18.4912,-8.29734 -18.4912,-18.4912 0,-10.19387 8.29734,-18.4912 18.4912,-18.4912 h 3.16089 c 1.26436,0 2.37067,-0.23707 3.31894,-0.55316 z"
           style="font-style:normal;font-variant:normal;font-weight:normal;font-stretch:normal;font-size:medium;line-height:1.25;font-family:Kirvy;-inkscape-font-specification:Kirvy;letter-spacing:0px;word-spacing:0px;fill:#0d4365;fill-opacity:1;stroke:none;stroke-width:2.11666679"
           id="path869"
           inkscape:connector-curvature="0" />
        <path
           d="m 465.53728,-169.52896 c 7.66516,0 11.77431,-3.31893 13.90791,-6.16373 l 1.18534,-1.58045 -3.16089,-2.37067 -1.18533,1.58045 c -2.21263,3.00284 -5.92667,4.58329 -10.74703,4.58329 -7.42809,0 -13.67084,-6.71689 -14.9352,-15.56738 0,0 -0.39511,-1.65947 0.79023,-2.76578 0.47413,-0.47413 1.34337,-0.47413 1.4224,-0.47413 h 10.82604 c 4.89938,0 9.00853,-1.26436 11.93236,-3.556 2.68675,-2.1336 4.2672,-5.13645 4.2672,-8.29734 0,-3.00284 -1.34338,-5.76862 -3.87209,-7.8232 -2.52871,-2.1336 -6.00569,-3.23991 -10.50996,-3.23991 -2.60773,0 -5.13644,0.63218 -7.50711,1.81751 -2.29164,1.18534 -4.34622,2.8448 -6.08471,4.9784 -3.556,4.34623 -5.45253,10.03583 -5.45253,16.04152 0,3.31893 0.47413,5.29448 0.47413,5.29448 0.79022,4.03014 2.44969,7.74418 4.89938,10.74703 3.63502,4.42524 8.5344,6.79591 13.74986,6.79591 z m 0,-41.72374 c 7.112,0 10.35191,3.63503 10.35191,7.112 0,1.97556 -0.94826,3.79307 -2.76577,5.21547 -2.21263,1.73849 -5.53156,2.68676 -9.48267,2.68676 h -10.74702 c 0,0 -1.26436,-0.079 -2.29165,0.31609 1.34338,-8.69245 7.50711,-15.33032 14.9352,-15.33032 z"
           style="font-style:normal;font-variant:normal;font-weight:normal;font-stretch:normal;font-size:medium;line-height:1.25;font-family:Kirvy;-inkscape-font-specification:Kirvy;letter-spacing:0px;word-spacing:0px;fill:#0d4365;fill-opacity:1;stroke:none;stroke-width:2.11666679"
           id="path871"
           inkscape:connector-curvature="0" />
        <path
           d="m 503.11852,-169.44994 c 4.2672,0 8.37636,-1.34338 11.3792,-3.79307 3.23991,-2.52871 4.9784,-5.92666 4.9784,-9.64071 v -18.96533 c 0,-3.63502 -1.65946,-7.03298 -4.74133,-9.56169 -2.92382,-2.44969 -6.79591,-3.79307 -10.90507,-3.79307 -5.37351,0 -10.35191,2.29165 -13.19671,6.16374 l -1.18533,1.58044 3.16089,2.37067 1.18533,-1.58045 c 2.1336,-2.92382 5.92667,-4.58329 10.03582,-4.58329 6.4008,0 11.69529,4.18818 11.69529,9.40365 v 2.60773 c -0.079,1.10631 -0.31609,1.89654 -0.86924,2.37067 -0.7112,0.63218 -1.89654,0.63218 -1.89654,0.63218 h -9.64071 c -4.2672,0 -8.29733,1.34337 -11.3792,3.79306 -3.16089,2.52871 -4.89938,5.92667 -4.89938,9.56169 0,3.71405 1.73849,7.112 4.89938,9.64071 3.08187,2.44969 7.112,3.79307 11.3792,3.79307 z m 9.56169,-22.83742 c 0.39511,0 1.58045,0 2.8448,-0.47414 v 9.87778 c 0,2.44969 -1.26435,4.74134 -3.47698,6.55885 -2.37066,1.81751 -5.53155,2.8448 -8.92951,2.8448 -3.39795,0 -6.55884,-1.02729 -8.92951,-2.8448 -2.21262,-1.81751 -3.39795,-4.10916 -3.39795,-6.55885 0,-2.44969 1.18533,-4.74133 3.39795,-6.47982 2.37067,-1.89653 5.53156,-2.92382 8.92951,-2.92382 z"
           style="font-style:normal;font-variant:normal;font-weight:normal;font-stretch:normal;font-size:medium;line-height:1.25;font-family:Kirvy;-inkscape-font-specification:Kirvy;letter-spacing:0px;word-spacing:0px;fill:#0d4365;fill-opacity:1;stroke:none;stroke-width:2.11666679"
           id="path873"
           inkscape:connector-curvature="0" />
        <path
           d="m 533.22599,-176.08781 c 4.2672,4.2672 9.87777,6.55885 15.88346,6.55885 h 10.43094 v -61.95343 h -3.95111 v 14.46107 c 0,0 0.079,1.02729 -0.63218,1.73849 -0.47413,0.55316 -1.4224,0.86925 -2.60773,0.86925 h -3.23992 c -6.00569,0 -11.61626,2.29164 -15.88346,6.55884 -4.2672,4.2672 -6.55885,9.87778 -6.55885,15.88347 0,6.00569 2.29165,11.61626 6.55885,15.88346 z m 22.36329,-34.92782 v 37.53556 h -6.47983 c -10.19386,0 -18.4912,-8.29734 -18.4912,-18.4912 0,-10.19387 8.29734,-18.4912 18.4912,-18.4912 h 3.16089 c 1.26436,0 2.37067,-0.23707 3.31894,-0.55316 z"
           style="font-style:normal;font-variant:normal;font-weight:normal;font-stretch:normal;font-size:medium;line-height:1.25;font-family:Kirvy;-inkscape-font-specification:Kirvy;letter-spacing:0px;word-spacing:0px;fill:#0d4365;fill-opacity:1;stroke:none;stroke-width:2.11666679"
           id="path875"
           inkscape:connector-curvature="0" />
      </g>
      <g
         id="g894">
        <path
           d="m 573.46188,-169.52896 h 3.95111 v -45.75387 h -3.95111 z m 1.97555,-59.81983 c -1.10631,0 -1.97555,0.86925 -1.97555,1.97556 v 1.02729 c 0,1.10631 0.86924,1.97556 1.97555,1.97556 1.02729,0 1.97556,-0.86925 1.97556,-1.97556 v -1.02729 c 0,-1.10631 -0.94827,-1.97556 -1.97556,-1.97556 z"
           style="font-style:normal;font-variant:normal;font-weight:normal;font-stretch:normal;font-size:medium;line-height:1.25;font-family:Kirvy;-inkscape-font-specification:Kirvy;letter-spacing:0px;word-spacing:0px;fill:#0d4365;fill-opacity:1;stroke:none;stroke-width:2.11666679"
           id="path877"
           inkscape:connector-curvature="0" />
        <path
           d="m 603.74839,-169.44994 c 4.2672,0 8.37636,-1.34338 11.3792,-3.79307 3.23991,-2.52871 4.9784,-5.92666 4.9784,-9.64071 v -18.96533 c 0,-3.63502 -1.65947,-7.03298 -4.74133,-9.56169 -2.92382,-2.44969 -6.79591,-3.79307 -10.90507,-3.79307 -5.37351,0 -10.35191,2.29165 -13.19671,6.16374 l -1.18533,1.58044 3.16088,2.37067 1.18534,-1.58045 c 2.1336,-2.92382 5.92666,-4.58329 10.03582,-4.58329 6.4008,0 11.69529,4.18818 11.69529,9.40365 v 2.60773 c -0.079,1.10631 -0.31609,1.89654 -0.86924,2.37067 -0.7112,0.63218 -1.89654,0.63218 -1.89654,0.63218 h -9.64071 c -4.2672,0 -8.29733,1.34337 -11.3792,3.79306 -3.16089,2.52871 -4.89938,5.92667 -4.89938,9.56169 0,3.71405 1.73849,7.112 4.89938,9.64071 3.08187,2.44969 7.112,3.79307 11.3792,3.79307 z m 9.56169,-22.83742 c 0.39511,0 1.58044,0 2.8448,-0.47414 v 9.87778 c 0,2.44969 -1.26436,4.74134 -3.47698,6.55885 -2.37066,1.81751 -5.53155,2.8448 -8.92951,2.8448 -3.39796,0 -6.55884,-1.02729 -8.92951,-2.8448 -2.21262,-1.81751 -3.39796,-4.10916 -3.39796,-6.55885 0,-2.44969 1.18534,-4.74133 3.39796,-6.47982 2.37067,-1.89653 5.53155,-2.92382 8.92951,-2.92382 z"
           style="font-style:normal;font-variant:normal;font-weight:normal;font-stretch:normal;font-size:medium;line-height:1.25;font-family:Kirvy;-inkscape-font-specification:Kirvy;letter-spacing:0px;word-spacing:0px;fill:#0d4365;fill-opacity:1;stroke:none;stroke-width:2.11666679"
           id="path879"
           inkscape:connector-curvature="0" />
        <path
           d="m 661.57413,-169.52896 v -28.28996 c 0,-4.66231 -1.73849,-9.00853 -4.74133,-12.24844 -3.08187,-3.31894 -7.19103,-5.13645 -11.53725,-5.13645 -4.42524,0 -8.5344,1.81751 -11.61626,5.13645 -3.00285,3.23991 -4.66232,7.58613 -4.66232,12.24844 v 28.28996 h 3.95112 v -28.28996 c 0,-7.42809 5.45253,-13.43378 12.32746,-13.43378 6.79591,0 12.32747,6.00569 12.32747,13.43378 v 28.28996 z"
           style="font-style:normal;font-variant:normal;font-weight:normal;font-stretch:normal;font-size:medium;line-height:1.25;font-family:Kirvy;-inkscape-font-specification:Kirvy;letter-spacing:0px;word-spacing:0px;fill:#0d4365;fill-opacity:1;stroke:none;stroke-width:2.11666679"
           id="path881"
           inkscape:connector-curvature="0" />
      </g>
      <g
         id="g923"
         transform="translate(0,101.6)">
        <path
           inkscape:connector-curvature="0"
           id="path915"
           style="font-style:normal;font-variant:normal;font-weight:normal;font-stretch:normal;font-size:medium;line-height:1.25;font-family:Kirvy;-inkscape-font-specification:Kirvy;letter-spacing:0px;word-spacing:0px;fill:#0d4365;fill-opacity:1;stroke:none;stroke-width:2.11666679"
           d="m 410.21679,-176.08781 c 4.2672,4.2672 9.87777,6.55885 15.88346,6.55885 h 10.43094 v -61.95343 h -3.95111 v 14.46107 c 0,0 0.079,1.02729 -0.63218,1.73849 -0.47414,0.55316 -1.4224,0.86925 -2.60774,0.86925 h -3.23991 c -6.00569,0 -11.61626,2.29164 -15.88346,6.55884 -4.2672,4.2672 -6.55885,9.87778 -6.55885,15.88347 0,6.00569 2.29165,11.61626 6.55885,15.88346 z m 22.36329,-34.92782 v 37.53556 h -6.47983 c -10.19386,0 -18.4912,-8.29734 -18.4912,-18.4912 0,-10.19387 8.29734,-18.4912 18.4912,-18.4912 h 3.16089 c 1.26436,0 2.37067,-0.23707 3.31894,-0.55316 z" />
        <path
           inkscape:connector-curvature="0"
           id="path917"
           style="font-style:normal;font-variant:normal;font-weight:normal;font-stretch:normal;font-size:medium;line-height:1.25;font-family:Kirvy;-inkscape-font-specification:Kirvy;letter-spacing:0px;word-spacing:0px;fill:#0d4365;fill-opacity:1;stroke:none;stroke-width:2.11666679"
           d="m 465.53728,-169.52896 c 7.66516,0 11.77431,-3.31893 13.90791,-6.16373 l 1.18534,-1.58045 -3.16089,-2.37067 -1.18533,1.58045 c -2.21263,3.00284 -5.92667,4.58329 -10.74703,4.58329 -7.42809,0 -13.67084,-6.71689 -14.9352,-15.56738 0,0 -0.39511,-1.65947 0.79023,-2.76578 0.47413,-0.47413 1.34337,-0.47413 1.4224,-0.47413 h 10.82604 c 4.89938,0 9.00853,-1.26436 11.93236,-3.556 2.68675,-2.1336 4.2672,-5.13645 4.2672,-8.29734 0,-3.00284 -1.34338,-5.76862 -3.87209,-7.8232 -2.52871,-2.1336 -6.00569,-3.23991 -10.50996,-3.23991 -2.60773,0 -5.13644,0.63218 -7.50711,1.81751 -2.29164,1.18534 -4.34622,2.8448 -6.08471,4.9784 -3.556,4.34623 -5.45253,10.03583 -5.45253,16.04152 0,3.31893 0.47413,5.29448 0.47413,5.29448 0.79022,4.03014 2.44969,7.74418 4.89938,10.74703 3.63502,4.42524 8.5344,6.79591 13.74986,6.79591 z m 0,-41.72374 c 7.112,0 10.35191,3.63503 10.35191,7.112 0,1.97556 -0.94826,3.79307 -2.76577,5.21547 -2.21263,1.73849 -5.53156,2.68676 -9.48267,2.68676 h -10.74702 c 0,0 -1.26436,-0.079 -2.29165,0.31609 1.34338,-8.69245 7.50711,-15.33032 14.9352,-15.33032 z" />
        <path
           inkscape:connector-curvature="0"
           id="path919"
           style="font-style:normal;font-variant:normal;font-weight:normal;font-stretch:normal;font-size:medium;line-height:1.25;font-family:Kirvy;-inkscape-font-specification:Kirvy;letter-spacing:0px;word-spacing:0px;fill:#0d4365;fill-opacity:1;stroke:none;stroke-width:2.11666679"
           d="m 503.11852,-169.44994 c 4.2672,0 8.37636,-1.34338 11.3792,-3.79307 3.23991,-2.52871 4.9784,-5.92666 4.9784,-9.64071 v -18.96533 c 0,-3.63502 -1.65946,-7.03298 -4.74133,-9.56169 -2.92382,-2.44969 -6.79591,-3.79307 -10.90507,-3.79307 -5.37351,0 -10.35191,2.29165 -13.19671,6.16374 l -1.18533,1.58044 3.16089,2.37067 1.18533,-1.58045 c 2.1336,-2.92382 5.92667,-4.58329 10.03582,-4.58329 6.4008,0 11.69529,4.18818 11.69529,9.40365 v 2.60773 c -0.079,1.10631 -0.31609,1.89654 -0.86924,2.37067 -0.7112,0.63218 -1.89654,0.63218 -1.89654,0.63218 h -9.64071 c -4.2672,0 -8.29733,1.34337 -11.3792,3.79306 -3.16089,2.52871 -4.89938,5.92667 -4.89938,9.56169 0,3.71405 1.73849,7.112 4.89938,9.64071 3.08187,2.44969 7.112,3.79307 11.3792,3.79307 z m 9.56169,-22.83742 c 0.39511,0 1.58045,0 2.8448,-0.47414 v 9.87778 c 0,2.44969 -1.26435,4.74134 -3.47698,6.55885 -2.37066,1.81751 -5.53155,2.8448 -8.92951,2.8448 -3.39795,0 -6.55884,-1.02729 -8.92951,-2.8448 -2.21262,-1.81751 -3.39795,-4.10916 -3.39795,-6.55885 0,-2.44969 1.18533,-4.74133 3.39795,-6.47982 2.37067,-1.89653 5.53156,-2.92382 8.92951,-2.92382 z" />
        <path
           inkscape:connector-curvature="0"
           id="path921"
           style="font-style:normal;font-variant:normal;font-weight:normal;font-stretch:normal;font-size:medium;line-height:1.25;font-family:Kirvy;-inkscape-font-specification:Kirvy;letter-spacing:0px;word-spacing:0px;fill:#0d4365;fill-opacity:1;stroke:none;stroke-width:2.11666679"
           d="m 533.22599,-176.08781 c 4.2672,4.2672 9.87777,6.55885 15.88346,6.55885 h 10.43094 v -61.95343 h -3.95111 v 14.46107 c 0,0 0.079,1.02729 -0.63218,1.73849 -0.47413,0.55316 -1.4224,0.86925 -2.60773,0.86925 h -3.23992 c -6.00569,0 -11.61626,2.29164 -15.88346,6.55884 -4.2672,4.2672 -6.55885,9.87778 -6.55885,15.88347 0,6.00569 2.29165,11.61626 6.55885,15.88346 z m 22.36329,-34.92782 v 37.53556 h -6.47983 c -10.19386,0 -18.4912,-8.29734 -18.4912,-18.4912 0,-10.19387 8.29734,-18.4912 18.4912,-18.4912 h 3.16089 c 1.26436,0 2.37067,-0.23707 3.31894,-0.55316 z" />
      </g>
      <g
         id="g931"
         transform="matrix(1.769135,0,0,1.769135,-610.87355,358.66562)">
        <path
           inkscape:connector-curvature="0"
           id="path925"
           style="font-style:normal;font-variant:normal;font-weight:normal;font-stretch:normal;font-size:medium;line-height:1.25;font-family:Kirvy;-inkscape-font-specification:Kirvy;letter-spacing:0px;word-spacing:0px;fill:#0d4365;fill-opacity:1;stroke:none;stroke-width:2.11666679"
           d="m 573.46188,-169.52896 h 3.95111 v -45.75387 h -3.95111 z m 1.97555,-59.81983 c -1.10631,0 -1.97555,0.86925 -1.97555,1.97556 v 1.02729 c 0,1.10631 0.86924,1.97556 1.97555,1.97556 1.02729,0 1.97556,-0.86925 1.97556,-1.97556 v -1.02729 c 0,-1.10631 -0.94827,-1.97556 -1.97556,-1.97556 z" />
        <path
           inkscape:connector-curvature="0"
           id="path927"
           style="font-style:normal;font-variant:normal;font-weight:normal;font-stretch:normal;font-size:medium;line-height:1.25;font-family:Kirvy;-inkscape-font-specification:Kirvy;letter-spacing:0px;word-spacing:0px;fill:#0d4365;fill-opacity:1;stroke:none;stroke-width:2.11666679"
           d="m 603.74839,-169.44994 c 4.2672,0 8.37636,-1.34338 11.3792,-3.79307 3.23991,-2.52871 4.9784,-5.92666 4.9784,-9.64071 v -18.96533 c 0,-3.63502 -1.65947,-7.03298 -4.74133,-9.56169 -2.92382,-2.44969 -6.79591,-3.79307 -10.90507,-3.79307 -5.37351,0 -10.35191,2.29165 -13.19671,6.16374 l -1.18533,1.58044 3.16088,2.37067 1.18534,-1.58045 c 2.1336,-2.92382 5.92666,-4.58329 10.03582,-4.58329 6.4008,0 11.69529,4.18818 11.69529,9.40365 v 2.60773 c -0.079,1.10631 -0.31609,1.89654 -0.86924,2.37067 -0.7112,0.63218 -1.89654,0.63218 -1.89654,0.63218 h -9.64071 c -4.2672,0 -8.29733,1.34337 -11.3792,3.79306 -3.16089,2.52871 -4.89938,5.92667 -4.89938,9.56169 0,3.71405 1.73849,7.112 4.89938,9.64071 3.08187,2.44969 7.112,3.79307 11.3792,3.79307 z m 9.56169,-22.83742 c 0.39511,0 1.58044,0 2.8448,-0.47414 v 9.87778 c 0,2.44969 -1.26436,4.74134 -3.47698,6.55885 -2.37066,1.81751 -5.53155,2.8448 -8.92951,2.8448 -3.39796,0 -6.55884,-1.02729 -8.92951,-2.8448 -2.21262,-1.81751 -3.39796,-4.10916 -3.39796,-6.55885 0,-2.44969 1.18534,-4.74133 3.39796,-6.47982 2.37067,-1.89653 5.53155,-2.92382 8.92951,-2.92382 z" />
        <path
           inkscape:connector-curvature="0"
           id="path929"
           style="font-style:normal;font-variant:normal;font-weight:normal;font-stretch:normal;font-size:medium;line-height:1.25;font-family:Kirvy;-inkscape-font-specification:Kirvy;letter-spacing:0px;word-spacing:0px;fill:#0d4365;fill-opacity:1;stroke:none;stroke-width:2.11666679"
           d="m 661.57413,-169.52896 v -28.28996 c 0,-4.66231 -1.73849,-9.00853 -4.74133,-12.24844 -3.08187,-3.31894 -7.19103,-5.13645 -11.53725,-5.13645 -4.42524,0 -8.5344,1.81751 -11.61626,5.13645 -3.00285,3.23991 -4.66232,7.58613 -4.66232,12.24844 v 28.28996 h 3.95112 v -28.28996 c 0,-7.42809 5.45253,-13.43378 12.32746,-13.43378 6.79591,0 12.32747,6.00569 12.32747,13.43378 v 28.28996 z" />
      </g>
      <g
         transform="rotate(90,572.75122,7.8121554)"
         id="g950">
        <path
           d="m 410.21679,-176.08781 c 4.2672,4.2672 9.87777,6.55885 15.88346,6.55885 h 10.43094 v -61.95343 h -3.95111 v 14.46107 c 0,0 0.079,1.02729 -0.63218,1.73849 -0.47414,0.55316 -1.4224,0.86925 -2.60774,0.86925 h -3.23991 c -6.00569,0 -11.61626,2.29164 -15.88346,6.55884 -4.2672,4.2672 -6.55885,9.87778 -6.55885,15.88347 0,6.00569 2.29165,11.61626 6.55885,15.88346 z m 22.36329,-34.92782 v 37.53556 h -6.47983 c -10.19386,0 -18.4912,-8.29734 -18.4912,-18.4912 0,-10.19387 8.29734,-18.4912 18.4912,-18.4912 h 3.16089 c 1.26436,0 2.37067,-0.23707 3.31894,-0.55316 z"
           style="font-style:normal;font-variant:normal;font-weight:normal;font-stretch:normal;font-size:medium;line-height:1.25;font-family:Kirvy;-inkscape-font-specification:Kirvy;letter-spacing:0px;word-spacing:0px;fill:#0d4365;fill-opacity:1;stroke:none;stroke-width:2.11666679"
           id="path942"
           inkscape:connector-curvature="0" />
        <path
           d="m 465.53728,-169.52896 c 7.66516,0 11.77431,-3.31893 13.90791,-6.16373 l 1.18534,-1.58045 -3.16089,-2.37067 -1.18533,1.58045 c -2.21263,3.00284 -5.92667,4.58329 -10.74703,4.58329 -7.42809,0 -13.67084,-6.71689 -14.9352,-15.56738 0,0 -0.39511,-1.65947 0.79023,-2.76578 0.47413,-0.47413 1.34337,-0.47413 1.4224,-0.47413 h 10.82604 c 4.89938,0 9.00853,-1.26436 11.93236,-3.556 2.68675,-2.1336 4.2672,-5.13645 4.2672,-8.29734 0,-3.00284 -1.34338,-5.76862 -3.87209,-7.8232 -2.52871,-2.1336 -6.00569,-3.23991 -10.50996,-3.23991 -2.60773,0 -5.13644,0.63218 -7.50711,1.81751 -2.29164,1.18534 -4.34622,2.8448 -6.08471,4.9784 -3.556,4.34623 -5.45253,10.03583 -5.45253,16.04152 0,3.31893 0.47413,5.29448 0.47413,5.29448 0.79022,4.03014 2.44969,7.74418 4.89938,10.74703 3.63502,4.42524 8.5344,6.79591 13.74986,6.79591 z m 0,-41.72374 c 7.112,0 10.35191,3.63503 10.35191,7.112 0,1.97556 -0.94826,3.79307 -2.76577,5.21547 -2.21263,1.73849 -5.53156,2.68676 -9.48267,2.68676 h -10.74702 c 0,0 -1.26436,-0.079 -2.29165,0.31609 1.34338,-8.69245 7.50711,-15.33032 14.9352,-15.33032 z"
           style="font-style:normal;font-variant:normal;font-weight:normal;font-stretch:normal;font-size:medium;line-height:1.25;font-family:Kirvy;-inkscape-font-specification:Kirvy;letter-spacing:0px;word-spacing:0px;fill:#0d4365;fill-opacity:1;stroke:none;stroke-width:2.11666679"
           id="path944"
           inkscape:connector-curvature="0" />
        <path
           d="m 503.11852,-169.44994 c 4.2672,0 8.37636,-1.34338 11.3792,-3.79307 3.23991,-2.52871 4.9784,-5.92666 4.9784,-9.64071 v -18.96533 c 0,-3.63502 -1.65946,-7.03298 -4.74133,-9.56169 -2.92382,-2.44969 -6.79591,-3.79307 -10.90507,-3.79307 -5.37351,0 -10.35191,2.29165 -13.19671,6.16374 l -1.18533,1.58044 3.16089,2.37067 1.18533,-1.58045 c 2.1336,-2.92382 5.92667,-4.58329 10.03582,-4.58329 6.4008,0 11.69529,4.18818 11.69529,9.40365 v 2.60773 c -0.079,1.10631 -0.31609,1.89654 -0.86924,2.37067 -0.7112,0.63218 -1.89654,0.63218 -1.89654,0.63218 h -9.64071 c -4.2672,0 -8.29733,1.34337 -11.3792,3.79306 -3.16089,2.52871 -4.89938,5.92667 -4.89938,9.56169 0,3.71405 1.73849,7.112 4.89938,9.64071 3.08187,2.44969 7.112,3.79307 11.3792,3.79307 z m 9.56169,-22.83742 c 0.39511,0 1.58045,0 2.8448,-0.47414 v 9.87778 c 0,2.44969 -1.26435,4.74134 -3.47698,6.55885 -2.37066,1.81751 -5.53155,2.8448 -8.92951,2.8448 -3.39795,0 -6.55884,-1.02729 -8.92951,-2.8448 -2.21262,-1.81751 -3.39795,-4.10916 -3.39795,-6.55885 0,-2.44969 1.18533,-4.74133 3.39795,-6.47982 2.37067,-1.89653 5.53156,-2.92382 8.92951,-2.92382 z"
           style="font-style:normal;font-variant:normal;font-weight:normal;font-stretch:normal;font-size:medium;line-height:1.25;font-family:Kirvy;-inkscape-font-specification:Kirvy;letter-spacing:0px;word-spacing:0px;fill:#0d4365;fill-opacity:1;stroke:none;stroke-width:2.11666679"
           id="path946"
           inkscape:connector-curvature="0" />
        <path
           d="m 533.22599,-176.08781 c 4.2672,4.2672 9.87777,6.55885 15.88346,6.55885 h 10.43094 v -61.95343 h -3.95111 v 14.46107 c 0,0 0.079,1.02729 -0.63218,1.73849 -0.47413,0.55316 -1.4224,0.86925 -2.60773,0.86925 h -3.23992 c -6.00569,0 -11.61626,2.29164 -15.88346,6.55884 -4.2672,4.2672 -6.55885,9.87778 -6.55885,15.88347 0,6.00569 2.29165,11.61626 6.55885,15.88346 z m 22.36329,-34.92782 v 37.53556 h -6.47983 c -10.19386,0 -18.4912,-8.29734 -18.4912,-18.4912 0,-10.19387 8.29734,-18.4912 18.4912,-18.4912 h 3.16089 c 1.26436,0 2.37067,-0.23707 3.31894,-0.55316 z"
           style="font-style:normal;font-variant:normal;font-weight:normal;font-stretch:normal;font-size:medium;line-height:1.25;font-family:Kirvy;-inkscape-font-specification:Kirvy;letter-spacing:0px;word-spacing:0px;fill:#0d4365;fill-opacity:1;stroke:none;stroke-width:2.11666679"
           id="path948"
           inkscape:connector-curvature="0" />
      </g>
      <g
         id="g979"
         transform="translate(-107.35263,-48.705269)"
         inkscape:export-filename="/home/eud/Documents/School/zProjects/Kerde/W3s/kerde.bitbucket.io/img/di-P.png"
         inkscape:export-xdpi="182.40401"
         inkscape:export-ydpi="182.40401">
        <g
           transform="translate(600.96782,70.201265)"
           id="g960">
          <path
             d="m 410.21679,-176.08781 c 4.2672,4.2672 9.87777,6.55885 15.88346,6.55885 h 10.43094 v -61.95343 h -3.95111 v 14.46107 c 0,0 0.079,1.02729 -0.63218,1.73849 -0.47414,0.55316 -1.4224,0.86925 -2.60774,0.86925 h -3.23991 c -6.00569,0 -11.61626,2.29164 -15.88346,6.55884 -4.2672,4.2672 -6.55885,9.87778 -6.55885,15.88347 0,6.00569 2.29165,11.61626 6.55885,15.88346 z m 22.36329,-34.92782 v 37.53556 h -6.47983 c -10.19386,0 -18.4912,-8.29734 -18.4912,-18.4912 0,-10.19387 8.29734,-18.4912 18.4912,-18.4912 h 3.16089 c 1.26436,0 2.37067,-0.23707 3.31894,-0.55316 z"
             style="font-style:normal;font-variant:normal;font-weight:normal;font-stretch:normal;font-size:medium;line-height:1.25;font-family:Kirvy;-inkscape-font-specification:Kirvy;letter-spacing:0px;word-spacing:0px;fill:#0d4365;fill-opacity:1;stroke:none;stroke-width:2.11666679"
             id="path952"
             inkscape:connector-curvature="0" />
          <path
             d="m 465.53728,-169.52896 c 7.66516,0 11.77431,-3.31893 13.90791,-6.16373 l 1.18534,-1.58045 -3.16089,-2.37067 -1.18533,1.58045 c -2.21263,3.00284 -5.92667,4.58329 -10.74703,4.58329 -7.42809,0 -13.67084,-6.71689 -14.9352,-15.56738 0,0 -0.39511,-1.65947 0.79023,-2.76578 0.47413,-0.47413 1.34337,-0.47413 1.4224,-0.47413 h 10.82604 c 4.89938,0 9.00853,-1.26436 11.93236,-3.556 2.68675,-2.1336 4.2672,-5.13645 4.2672,-8.29734 0,-3.00284 -1.34338,-5.76862 -3.87209,-7.8232 -2.52871,-2.1336 -6.00569,-3.23991 -10.50996,-3.23991 -2.60773,0 -5.13644,0.63218 -7.50711,1.81751 -2.29164,1.18534 -4.34622,2.8448 -6.08471,4.9784 -3.556,4.34623 -5.45253,10.03583 -5.45253,16.04152 0,3.31893 0.47413,5.29448 0.47413,5.29448 0.79022,4.03014 2.44969,7.74418 4.89938,10.74703 3.63502,4.42524 8.5344,6.79591 13.74986,6.79591 z m 0,-41.72374 c 7.112,0 10.35191,3.63503 10.35191,7.112 0,1.97556 -0.94826,3.79307 -2.76577,5.21547 -2.21263,1.73849 -5.53156,2.68676 -9.48267,2.68676 h -10.74702 c 0,0 -1.26436,-0.079 -2.29165,0.31609 1.34338,-8.69245 7.50711,-15.33032 14.9352,-15.33032 z"
             style="font-style:normal;font-variant:normal;font-weight:normal;font-stretch:normal;font-size:medium;line-height:1.25;font-family:Kirvy;-inkscape-font-specification:Kirvy;letter-spacing:0px;word-spacing:0px;fill:#0d4365;fill-opacity:1;stroke:none;stroke-width:2.11666679"
             id="path954"
             inkscape:connector-curvature="0" />
          <path
             d="m 503.11852,-169.44994 c 4.2672,0 8.37636,-1.34338 11.3792,-3.79307 3.23991,-2.52871 4.9784,-5.92666 4.9784,-9.64071 v -18.96533 c 0,-3.63502 -1.65946,-7.03298 -4.74133,-9.56169 -2.92382,-2.44969 -6.79591,-3.79307 -10.90507,-3.79307 -5.37351,0 -10.35191,2.29165 -13.19671,6.16374 l -1.18533,1.58044 3.16089,2.37067 1.18533,-1.58045 c 2.1336,-2.92382 5.92667,-4.58329 10.03582,-4.58329 6.4008,0 11.69529,4.18818 11.69529,9.40365 v 2.60773 c -0.079,1.10631 -0.31609,1.89654 -0.86924,2.37067 -0.7112,0.63218 -1.89654,0.63218 -1.89654,0.63218 h -9.64071 c -4.2672,0 -8.29733,1.34337 -11.3792,3.79306 -3.16089,2.52871 -4.89938,5.92667 -4.89938,9.56169 0,3.71405 1.73849,7.112 4.89938,9.64071 3.08187,2.44969 7.112,3.79307 11.3792,3.79307 z m 9.56169,-22.83742 c 0.39511,0 1.58045,0 2.8448,-0.47414 v 9.87778 c 0,2.44969 -1.26435,4.74134 -3.47698,6.55885 -2.37066,1.81751 -5.53155,2.8448 -8.92951,2.8448 -3.39795,0 -6.55884,-1.02729 -8.92951,-2.8448 -2.21262,-1.81751 -3.39795,-4.10916 -3.39795,-6.55885 0,-2.44969 1.18533,-4.74133 3.39795,-6.47982 2.37067,-1.89653 5.53156,-2.92382 8.92951,-2.92382 z"
             style="font-style:normal;font-variant:normal;font-weight:normal;font-stretch:normal;font-size:medium;line-height:1.25;font-family:Kirvy;-inkscape-font-specification:Kirvy;letter-spacing:0px;word-spacing:0px;fill:#0d4365;fill-opacity:1;stroke:none;stroke-width:2.11666679"
             id="path956"
             inkscape:connector-curvature="0" />
          <path
             d="m 533.22599,-176.08781 c 4.2672,4.2672 9.87777,6.55885 15.88346,6.55885 h 10.43094 v -61.95343 h -3.95111 v 14.46107 c 0,0 0.079,1.02729 -0.63218,1.73849 -0.47413,0.55316 -1.4224,0.86925 -2.60773,0.86925 h -3.23992 c -6.00569,0 -11.61626,2.29164 -15.88346,6.55884 -4.2672,4.2672 -6.55885,9.87778 -6.55885,15.88347 0,6.00569 2.29165,11.61626 6.55885,15.88346 z m 22.36329,-34.92782 v 37.53556 h -6.47983 c -10.19386,0 -18.4912,-8.29734 -18.4912,-18.4912 0,-10.19387 8.29734,-18.4912 18.4912,-18.4912 h 3.16089 c 1.26436,0 2.37067,-0.23707 3.31894,-0.55316 z"
             style="font-style:normal;font-variant:normal;font-weight:normal;font-stretch:normal;font-size:medium;line-height:1.25;font-family:Kirvy;-inkscape-font-specification:Kirvy;letter-spacing:0px;word-spacing:0px;fill:#0d4365;fill-opacity:1;stroke:none;stroke-width:2.11666679"
             id="path958"
             inkscape:connector-curvature="0" />
        </g>
        <g
           transform="translate(465.04898,164.05127)"
           id="g968">
          <path
             d="m 573.46188,-169.52896 h 3.95111 v -45.75387 h -3.95111 z m 1.97555,-59.81983 c -1.10631,0 -1.97555,0.86925 -1.97555,1.97556 v 1.02729 c 0,1.10631 0.86924,1.97556 1.97555,1.97556 1.02729,0 1.97556,-0.86925 1.97556,-1.97556 v -1.02729 c 0,-1.10631 -0.94827,-1.97556 -1.97556,-1.97556 z"
             style="font-style:normal;font-variant:normal;font-weight:normal;font-stretch:normal;font-size:medium;line-height:1.25;font-family:Kirvy;-inkscape-font-specification:Kirvy;letter-spacing:0px;word-spacing:0px;fill:#0d4365;fill-opacity:1;stroke:none;stroke-width:2.11666679"
             id="path962"
             inkscape:connector-curvature="0" />
          <path
             d="m 603.74839,-169.44994 c 4.2672,0 8.37636,-1.34338 11.3792,-3.79307 3.23991,-2.52871 4.9784,-5.92666 4.9784,-9.64071 v -18.96533 c 0,-3.63502 -1.65947,-7.03298 -4.74133,-9.56169 -2.92382,-2.44969 -6.79591,-3.79307 -10.90507,-3.79307 -5.37351,0 -10.35191,2.29165 -13.19671,6.16374 l -1.18533,1.58044 3.16088,2.37067 1.18534,-1.58045 c 2.1336,-2.92382 5.92666,-4.58329 10.03582,-4.58329 6.4008,0 11.69529,4.18818 11.69529,9.40365 v 2.60773 c -0.079,1.10631 -0.31609,1.89654 -0.86924,2.37067 -0.7112,0.63218 -1.89654,0.63218 -1.89654,0.63218 h -9.64071 c -4.2672,0 -8.29733,1.34337 -11.3792,3.79306 -3.16089,2.52871 -4.89938,5.92667 -4.89938,9.56169 0,3.71405 1.73849,7.112 4.89938,9.64071 3.08187,2.44969 7.112,3.79307 11.3792,3.79307 z m 9.56169,-22.83742 c 0.39511,0 1.58044,0 2.8448,-0.47414 v 9.87778 c 0,2.44969 -1.26436,4.74134 -3.47698,6.55885 -2.37066,1.81751 -5.53155,2.8448 -8.92951,2.8448 -3.39796,0 -6.55884,-1.02729 -8.92951,-2.8448 -2.21262,-1.81751 -3.39796,-4.10916 -3.39796,-6.55885 0,-2.44969 1.18534,-4.74133 3.39796,-6.47982 2.37067,-1.89653 5.53155,-2.92382 8.92951,-2.92382 z"
             style="font-style:normal;font-variant:normal;font-weight:normal;font-stretch:normal;font-size:medium;line-height:1.25;font-family:Kirvy;-inkscape-font-specification:Kirvy;letter-spacing:0px;word-spacing:0px;fill:#0d4365;fill-opacity:1;stroke:none;stroke-width:2.11666679"
             id="path964"
             inkscape:connector-curvature="0" />
          <path
             d="m 661.57413,-169.52896 v -28.28996 c 0,-4.66231 -1.73849,-9.00853 -4.74133,-12.24844 -3.08187,-3.31894 -7.19103,-5.13645 -11.53725,-5.13645 -4.42524,0 -8.5344,1.81751 -11.61626,5.13645 -3.00285,3.23991 -4.66232,7.58613 -4.66232,12.24844 v 28.28996 h 3.95112 v -28.28996 c 0,-7.42809 5.45253,-13.43378 12.32746,-13.43378 6.79591,0 12.32747,6.00569 12.32747,13.43378 v 28.28996 z"
             style="font-style:normal;font-variant:normal;font-weight:normal;font-stretch:normal;font-size:medium;line-height:1.25;font-family:Kirvy;-inkscape-font-specification:Kirvy;letter-spacing:0px;word-spacing:0px;fill:#0d4365;fill-opacity:1;stroke:none;stroke-width:2.11666679"
             id="path966"
             inkscape:connector-curvature="0" />
        </g>
      </g>
    </g>
  </g>
</svg>
