<?xml version="1.0" encoding="UTF-8" standalone="no"?>
<!-- Created with Inkscape (http://www.inkscape.org/) -->

<svg
   xmlns:dc="http://purl.org/dc/elements/1.1/"
   xmlns:cc="http://creativecommons.org/ns#"
   xmlns:rdf="http://www.w3.org/1999/02/22-rdf-syntax-ns#"
   xmlns:svg="http://www.w3.org/2000/svg"
   xmlns="http://www.w3.org/2000/svg"
   xmlns:sodipodi="http://sodipodi.sourceforge.net/DTD/sodipodi-0.dtd"
   xmlns:inkscape="http://www.inkscape.org/namespaces/inkscape"
   width="299.93683"
   height="135.15269"
   viewBox="0 0 79.358283 35.759152"
   version="1.1"
   id="svg8"
   inkscape:version="0.92.4 (unknown)"
   sodipodi:docname="deadian.svg">
  <defs
     id="defs2" />
  <sodipodi:namedview
     id="base"
     pagecolor="#ffffff"
     bordercolor="#666666"
     borderopacity="1.0"
     inkscape:pageopacity="0.0"
     inkscape:pageshadow="2"
     inkscape:zoom="0.70000001"
     inkscape:cx="240.72954"
     inkscape:cy="-126.37893"
     inkscape:document-units="px"
     inkscape:current-layer="g868"
     showgrid="false"
     inkscape:window-width="1366"
     inkscape:window-height="725"
     inkscape:window-x="0"
     inkscape:window-y="0"
     inkscape:window-maximized="1"
     units="px" />
  <metadata
     id="metadata5">
    <rdf:RDF>
      <cc:Work
         rdf:about="">
        <dc:format>image/svg+xml</dc:format>
        <dc:type
           rdf:resource="http://purl.org/dc/dcmitype/StillImage" />
        <dc:title />
      </cc:Work>
    </rdf:RDF>
  </metadata>
  <g
     inkscape:label="Layer 1"
     inkscape:groupmode="layer"
     id="layer1"
     transform="translate(-141.10766,132.59567)">
    <g
       transform="matrix(0.0625,0,0,0.0625,151.04365,-100.51688)"
       id="g868">
      <g
         id="g917">
        <circle
           inkscape:export-ydpi="403.38068"
           inkscape:export-xdpi="403.38068"
           inkscape:export-filename="/home/eud/Documents/School/zProjects/Kerde/W3s/kerde.bitbucket.io/img/di-R.png"
           r="130.19972"
           cy="-132.04517"
           cx="975.21436"
           id="circle981"
           style="opacity:1;fill:#ffffff;fill-opacity:1;fill-rule:nonzero;stroke:#0d4365;stroke-width:10.68533039;stroke-linecap:square;stroke-linejoin:miter;stroke-miterlimit:4;stroke-dasharray:none;stroke-opacity:1;paint-order:normal" />
        <circle
           inkscape:export-ydpi="331.94766"
           inkscape:export-xdpi="331.94766"
           inkscape:export-filename="/home/eud/Documents/School/zProjects/Kerde/W3s/kerde.bitbucket.io/img/diL-R.png"
           style="opacity:1;fill:#ffffff;fill-opacity:1;fill-rule:nonzero;stroke:#0d4365;stroke-width:12.35397911;stroke-linecap:square;stroke-linejoin:miter;stroke-miterlimit:4;stroke-dasharray:none;stroke-opacity:1;paint-order:normal"
           id="circle859"
           cx="125.29729"
           cy="-356.55157"
           r="150.53206" />
        <text
           inkscape:export-ydpi="403.38068"
           inkscape:export-xdpi="403.38068"
           inkscape:export-filename="/home/eud/Documents/School/zProjects/Kerde/W3s/kerde.bitbucket.io/img/diL-P.png"
           id="text857"
           y="-325.61438"
           x="-8.0860529"
           style="font-style:normal;font-variant:normal;font-weight:normal;font-stretch:normal;font-size:79.02222443px;line-height:1.25;font-family:'Liberation Serif';-inkscape-font-specification:'Liberation Serif';letter-spacing:0px;word-spacing:0px;fill:#0d4365;fill-opacity:1;stroke:none;stroke-width:2.11666679"
           xml:space="preserve"><tspan
             style="font-style:normal;font-variant:normal;font-weight:normal;font-stretch:normal;font-family:Kirvy;-inkscape-font-specification:Kirvy;fill:#0d4365;fill-opacity:1;stroke-width:2.11666679"
             y="-325.61438"
             x="-8.0860529"
             id="tspan855"
             sodipodi:role="line">deadian</tspan></text>
        <text
           xml:space="preserve"
           style="font-style:normal;font-variant:normal;font-weight:normal;font-stretch:normal;font-size:79.02222443px;line-height:1.25;font-family:'Liberation Serif';-inkscape-font-specification:'Liberation Serif';letter-spacing:0px;word-spacing:0px;fill:#0d4365;fill-opacity:1;stroke:none;stroke-width:2.11666679"
           x="391.74915"
           y="-289.26572"
           id="text863"><tspan
             sodipodi:role="line"
             id="tspan861"
             x="391.74915"
             y="-289.26572"
             style="font-style:normal;font-variant:normal;font-weight:normal;font-stretch:normal;font-family:Kirvy;-inkscape-font-specification:Kirvy;fill:#0d4365;fill-opacity:1;stroke-width:2.11666679">deadian</tspan></text>
        <path
           d="m 410.21679,-176.08781 c 4.2672,4.2672 9.87777,6.55885 15.88346,6.55885 h 10.43094 v -61.95343 h -3.95111 v 14.46107 c 0,0 0.079,1.02729 -0.63218,1.73849 -0.47414,0.55316 -1.4224,0.86925 -2.60774,0.86925 h -3.23991 c -6.00569,0 -11.61626,2.29164 -15.88346,6.55884 -4.2672,4.2672 -6.55885,9.87778 -6.55885,15.88347 0,6.00569 2.29165,11.61626 6.55885,15.88346 z m 22.36329,-34.92782 v 37.53556 h -6.47983 c -10.19386,0 -18.4912,-8.29734 -18.4912,-18.4912 0,-10.19387 8.29734,-18.4912 18.4912,-18.4912 h 3.16089 c 1.26436,0 2.37067,-0.23707 3.31894,-0.55316 z"
           style="font-style:normal;font-variant:normal;font-weight:normal;font-stretch:normal;font-size:medium;line-height:1.25;font-family:Kirvy;-inkscape-font-specification:Kirvy;letter-spacing:0px;word-spacing:0px;fill:#0d4365;fill-opacity:1;stroke:none;stroke-width:2.11666679"
           id="path869"
           inkscape:connector-curvature="0" />
        <path
           d="m 465.53728,-169.52896 c 7.66516,0 11.77431,-3.31893 13.90791,-6.16373 l 1.18534,-1.58045 -3.16089,-2.37067 -1.18533,1.58045 c -2.21263,3.00284 -5.92667,4.58329 -10.74703,4.58329 -7.42809,0 -13.67084,-6.71689 -14.9352,-15.56738 0,0 -0.39511,-1.65947 0.79023,-2.76578 0.47413,-0.47413 1.34337,-0.47413 1.4224,-0.47413 h 10.82604 c 4.89938,0 9.00853,-1.26436 11.93236,-3.556 2.68675,-2.1336 4.2672,-5.13645 4.2672,-8.29734 0,-3.00284 -1.34338,-5.76862 -3.87209,-7.8232 -2.52871,-2.1336 -6.00569,-3.23991 -10.50996,-3.23991 -2.60773,0 -5.13644,0.63218 -7.50711,1.81751 -2.29164,1.18534 -4.34622,2.8448 -6.08471,4.9784 -3.556,4.34623 -5.45253,10.03583 -5.45253,16.04152 0,3.31893 0.47413,5.29448 0.47413,5.29448 0.79022,4.03014 2.44969,7.74418 4.89938,10.74703 3.63502,4.42524 8.5344,6.79591 13.74986,6.79591 z m 0,-41.72374 c 7.112,0 10.35191,3.63503 10.35191,7.112 0,1.97556 -0.94826,3.79307 -2.76577,5.21547 -2.21263,1.73849 -5.53156,2.68676 -9.48267,2.68676 h -10.74702 c 0,0 -1.26436,-0.079 -2.29165,0.31609 1.34338,-8.69245 7.50711,-15.33032 14.9352,-15.33032 z"
           style="font-style:normal;font-variant:normal;font-weight:normal;font-stretch:normal;font-size:medium;line-height:1.25;font-family:Kirvy;-inkscape-font-specification:Kirvy;letter-spacing:0px;word-spacing:0px;fill:#0d4365;fill-opacity:1;stroke:none;stroke-width:2.11666679"
           id="path871"
           inkscape:connector-curvature="0" />
        <path
           d="m 503.11852,-169.44994 c 4.2672,0 8.37636,-1.34338 11.3792,-3.79307 3.23991,-2.52871 4.9784,-5.92666 4.9784,-9.64071 v -18.96533 c 0,-3.63502 -1.65946,-7.03298 -4.74133,-9.56169 -2.92382,-2.44969 -6.79591,-3.79307 -10.90507,-3.79307 -5.37351,0 -10.35191,2.29165 -13.19671,6.16374 l -1.18533,1.58044 3.16089,2.37067 1.18533,-1.58045 c 2.1336,-2.92382 5.92667,-4.58329 10.03582,-4.58329 6.4008,0 11.69529,4.18818 11.69529,9.40365 v 2.60773 c -0.079,1.10631 -0.31609,1.89654 -0.86924,2.37067 -0.7112,0.63218 -1.89654,0.63218 -1.89654,0.63218 h -9.64071 c -4.2672,0 -8.29733,1.34337 -11.3792,3.79306 -3.16089,2.52871 -4.89938,5.92667 -4.89938,9.56169 0,3.71405 1.73849,7.112 4.89938,9.64071 3.08187,2.44969 7.112,3.79307 11.3792,3.79307 z m 9.56169,-22.83742 c 0.39511,0 1.58045,0 2.8448,-0.47414 v 9.87778 c 0,2.44969 -1.26435,4.74134 -3.47698,6.55885 -2.37066,1.81751 -5.53155,2.8448 -8.92951,2.8448 -3.39795,0 -6.55884,-1.02729 -8.92951,-2.8448 -2.21262,-1.81751 -3.39795,-4.10916 -3.39795,-6.55885 0,-2.44969 1.18533,-4.74133 3.39795,-6.47982 2.37067,-1.89653 5.53156,-2.92382 8.92951,-2.92382 z"
           style="font-style:normal;font-variant:normal;font-weight:normal;font-stretch:normal;font-size:medium;line-height:1.25;font-family:Kirvy;-inkscape-font-specification:Kirvy;letter-spacing:0px;word-spacing:0px;fill:#0d4365;fill-opacity:1;stroke:none;stroke-width:2.11666679"
           id="path873"
           inkscape:connector-curvature="0" />
        <path
           d="m 533.22599,-176.08781 c 4.2672,4.2672 9.87777,6.55885 15.88346,6.55885 h 10.43094 v -61.95343 h -3.95111 v 14.46107 c 0,0 0.079,1.02729 -0.63218,1.73849 -0.47413,0.55316 -1.4224,0.86925 -2.60773,0.86925 h -3.23992 c -6.00569,0 -11.61626,2.29164 -15.88346,6.55884 -4.2672,4.2672 -6.55885,9.87778 -6.55885,15.88347 0,6.00569 2.29165,11.61626 6.55885,15.88346 z m 22.36329,-34.92782 v 37.53556 h -6.47983 c -10.19386,0 -18.4912,-8.29734 -18.4912,-18.4912 0,-10.19387 8.29734,-18.4912 18.4912,-18.4912 h 3.16089 c 1.26436,0 2.37067,-0.23707 3.31894,-0.55316 z"
           style="font-style:normal;font-variant:normal;font-weight:normal;font-stretch:normal;font-size:medium;line-height:1.25;font-family:Kirvy;-inkscape-font-specification:Kirvy;letter-spacing:0px;word-spacing:0px;fill:#0d4365;fill-opacity:1;stroke:none;stroke-width:2.11666679"
           id="path875"
           inkscape:connector-curvature="0" />
        <path
           d="m 573.46188,-169.52896 h 3.95111 v -45.75387 h -3.95111 z m 1.97555,-59.81983 c -1.10631,0 -1.97555,0.86925 -1.97555,1.97556 v 1.02729 c 0,1.10631 0.86924,1.97556 1.97555,1.97556 1.02729,0 1.97556,-0.86925 1.97556,-1.97556 v -1.02729 c 0,-1.10631 -0.94827,-1.97556 -1.97556,-1.97556 z"
           style="font-style:normal;font-variant:normal;font-weight:normal;font-stretch:normal;font-size:medium;line-height:1.25;font-family:Kirvy;-inkscape-font-specification:Kirvy;letter-spacing:0px;word-spacing:0px;fill:#0d4365;fill-opacity:1;stroke:none;stroke-width:2.11666679"
           id="path877"
           inkscape:connector-curvature="0" />
        <path
           d="m 603.74839,-169.44994 c 4.2672,0 8.37636,-1.34338 11.3792,-3.79307 3.23991,-2.52871 4.9784,-5.92666 4.9784,-9.64071 v -18.96533 c 0,-3.63502 -1.65947,-7.03298 -4.74133,-9.56169 -2.92382,-2.44969 -6.79591,-3.79307 -10.90507,-3.79307 -5.37351,0 -10.35191,2.29165 -13.19671,6.16374 l -1.18533,1.58044 3.16088,2.37067 1.18534,-1.58045 c 2.1336,-2.92382 5.92666,-4.58329 10.03582,-4.58329 6.4008,0 11.69529,4.18818 11.69529,9.40365 v 2.60773 c -0.079,1.10631 -0.31609,1.89654 -0.86924,2.37067 -0.7112,0.63218 -1.89654,0.63218 -1.89654,0.63218 h -9.64071 c -4.2672,0 -8.29733,1.34337 -11.3792,3.79306 -3.16089,2.52871 -4.89938,5.92667 -4.89938,9.56169 0,3.71405 1.73849,7.112 4.89938,9.64071 3.08187,2.44969 7.112,3.79307 11.3792,3.79307 z m 9.56169,-22.83742 c 0.39511,0 1.58044,0 2.8448,-0.47414 v 9.87778 c 0,2.44969 -1.26436,4.74134 -3.47698,6.55885 -2.37066,1.81751 -5.53155,2.8448 -8.92951,2.8448 -3.39796,0 -6.55884,-1.02729 -8.92951,-2.8448 -2.21262,-1.81751 -3.39796,-4.10916 -3.39796,-6.55885 0,-2.44969 1.18534,-4.74133 3.39796,-6.47982 2.37067,-1.89653 5.53155,-2.92382 8.92951,-2.92382 z"
           style="font-style:normal;font-variant:normal;font-weight:normal;font-stretch:normal;font-size:medium;line-height:1.25;font-family:Kirvy;-inkscape-font-specification:Kirvy;letter-spacing:0px;word-spacing:0px;fill:#0d4365;fill-opacity:1;stroke:none;stroke-width:2.11666679"
           id="path879"
           inkscape:connector-curvature="0" />
        <path
           d="m 661.57413,-169.52896 v -28.28996 c 0,-4.66231 -1.73849,-9.00853 -4.74133,-12.24844 -3.08187,-3.31894 -7.19103,-5.13645 -11.53725,-5.13645 -4.42524,0 -8.5344,1.81751 -11.61626,5.13645 -3.00285,3.23991 -4.66232,7.58613 -4.66232,12.24844 v 28.28996 h 3.95112 v -28.28996 c 0,-7.42809 5.45253,-13.43378 12.32746,-13.43378 6.79591,0 12.32747,6.00569 12.32747,13.43378 v 28.28996 z"
           style="font-style:normal;font-variant:normal;font-weight:normal;font-stretch:normal;font-size:medium;line-height:1.25;font-family:Kirvy;-inkscape-font-specification:Kirvy;letter-spacing:0px;word-spacing:0px;fill:#0d4365;fill-opacity:1;stroke:none;stroke-width:2.11666679"
           id="path881"
           inkscape:connector-curvature="0" />
        <path
           inkscape:connector-curvature="0"
           id="path915"
           style="font-style:normal;font-variant:normal;font-weight:normal;font-stretch:normal;font-size:medium;line-height:1.25;font-family:Kirvy;-inkscape-font-specification:Kirvy;letter-spacing:0px;word-spacing:0px;fill:#0d4365;fill-opacity:1;stroke:none;stroke-width:2.11666679"
           d="m 410.21679,-74.48781 c 4.2672,4.2672 9.87777,6.55885 15.88346,6.55885 h 10.43094 v -61.95343 h -3.95111 v 14.46107 c 0,0 0.079,1.02729 -0.63218,1.73849 -0.47414,0.55316 -1.4224,0.86925 -2.60774,0.86925 h -3.23991 c -6.00569,0 -11.61626,2.29164 -15.88346,6.55884 -4.2672,4.2672 -6.55885,9.87778 -6.55885,15.88347 0,6.00569 2.29165,11.61626 6.55885,15.88346 z m 22.36329,-34.92782 v 37.53556 h -6.47983 c -10.19386,0 -18.4912,-8.29734 -18.4912,-18.4912 0,-10.19387 8.29734,-18.4912 18.4912,-18.4912 h 3.16089 c 1.26436,0 2.37067,-0.23707 3.31894,-0.55316 z" />
        <path
           inkscape:connector-curvature="0"
           id="path917"
           style="font-style:normal;font-variant:normal;font-weight:normal;font-stretch:normal;font-size:medium;line-height:1.25;font-family:Kirvy;-inkscape-font-specification:Kirvy;letter-spacing:0px;word-spacing:0px;fill:#0d4365;fill-opacity:1;stroke:none;stroke-width:2.11666679"
           d="m 465.53728,-67.92896 c 7.66516,0 11.77431,-3.31893 13.90791,-6.16373 l 1.18534,-1.58045 -3.16089,-2.37067 -1.18533,1.58045 c -2.21263,3.00284 -5.92667,4.58329 -10.74703,4.58329 -7.42809,0 -13.67084,-6.71689 -14.9352,-15.56738 0,0 -0.39511,-1.65947 0.79023,-2.76578 0.47413,-0.47413 1.34337,-0.47413 1.4224,-0.47413 h 10.82604 c 4.89938,0 9.00853,-1.26436 11.93236,-3.556 2.68675,-2.1336 4.2672,-5.13645 4.2672,-8.29734 0,-3.00284 -1.34338,-5.76862 -3.87209,-7.8232 -2.52871,-2.1336 -6.00569,-3.23991 -10.50996,-3.23991 -2.60773,0 -5.13644,0.63218 -7.50711,1.81751 -2.29164,1.18534 -4.34622,2.8448 -6.08471,4.9784 -3.556,4.34623 -5.45253,10.03583 -5.45253,16.04152 0,3.31893 0.47413,5.29448 0.47413,5.29448 0.79022,4.03014 2.44969,7.74418 4.89938,10.74703 3.63502,4.42524 8.5344,6.79591 13.74986,6.79591 z m 0,-41.72374 c 7.112,0 10.35191,3.63503 10.35191,7.112 0,1.97556 -0.94826,3.79307 -2.76577,5.21547 -2.21263,1.73849 -5.53156,2.68676 -9.48267,2.68676 h -10.74702 c 0,0 -1.26436,-0.079 -2.29165,0.31609 1.34338,-8.69245 7.50711,-15.33032 14.9352,-15.33032 z" />
        <path
           inkscape:connector-curvature="0"
           id="path919"
           style="font-style:normal;font-variant:normal;font-weight:normal;font-stretch:normal;font-size:medium;line-height:1.25;font-family:Kirvy;-inkscape-font-specification:Kirvy;letter-spacing:0px;word-spacing:0px;fill:#0d4365;fill-opacity:1;stroke:none;stroke-width:2.11666679"
           d="m 503.11852,-67.84994 c 4.2672,0 8.37636,-1.34338 11.3792,-3.79307 3.23991,-2.52871 4.9784,-5.92666 4.9784,-9.64071 v -18.96533 c 0,-3.63502 -1.65946,-7.03298 -4.74133,-9.56169 -2.92382,-2.44969 -6.79591,-3.79307 -10.90507,-3.79307 -5.37351,0 -10.35191,2.29165 -13.19671,6.16374 l -1.18533,1.58044 3.16089,2.37067 1.18533,-1.58045 c 2.1336,-2.92382 5.92667,-4.58329 10.03582,-4.58329 6.4008,0 11.69529,4.18818 11.69529,9.40365 v 2.60773 c -0.079,1.10631 -0.31609,1.89654 -0.86924,2.37067 -0.7112,0.63218 -1.89654,0.63218 -1.89654,0.63218 h -9.64071 c -4.2672,0 -8.29733,1.34337 -11.3792,3.79306 -3.16089,2.52871 -4.89938,5.92667 -4.89938,9.56169 0,3.71405 1.73849,7.112 4.89938,9.64071 3.08187,2.44969 7.112,3.79307 11.3792,3.79307 z m 9.56169,-22.83742 c 0.39511,0 1.58045,0 2.8448,-0.47414 v 9.87778 c 0,2.44969 -1.26435,4.74134 -3.47698,6.55885 -2.37066,1.81751 -5.53155,2.8448 -8.92951,2.8448 -3.39795,0 -6.55884,-1.02729 -8.92951,-2.8448 -2.21262,-1.81751 -3.39795,-4.10916 -3.39795,-6.55885 0,-2.44969 1.18533,-4.74133 3.39795,-6.47982 2.37067,-1.89653 5.53156,-2.92382 8.92951,-2.92382 z" />
        <path
           inkscape:connector-curvature="0"
           id="path921"
           style="font-style:normal;font-variant:normal;font-weight:normal;font-stretch:normal;font-size:medium;line-height:1.25;font-family:Kirvy;-inkscape-font-specification:Kirvy;letter-spacing:0px;word-spacing:0px;fill:#0d4365;fill-opacity:1;stroke:none;stroke-width:2.11666679"
           d="m 533.22599,-74.48781 c 4.2672,4.2672 9.87777,6.55885 15.88346,6.55885 h 10.43094 v -61.95343 h -3.95111 v 14.46107 c 0,0 0.079,1.02729 -0.63218,1.73849 -0.47413,0.55316 -1.4224,0.86925 -2.60773,0.86925 h -3.23992 c -6.00569,0 -11.61626,2.29164 -15.88346,6.55884 -4.2672,4.2672 -6.55885,9.87778 -6.55885,15.88347 0,6.00569 2.29165,11.61626 6.55885,15.88346 z m 22.36329,-34.92782 v 37.53556 h -6.47983 c -10.19386,0 -18.4912,-8.29734 -18.4912,-18.4912 0,-10.19387 8.29734,-18.4912 18.4912,-18.4912 h 3.16089 c 1.26436,0 2.37067,-0.23707 3.31894,-0.55316 z" />
        <path
           inkscape:connector-curvature="0"
           id="path925"
           style="font-style:normal;font-variant:normal;font-weight:normal;font-stretch:normal;font-size:medium;line-height:1.25;font-family:Kirvy;-inkscape-font-specification:Kirvy;letter-spacing:0px;word-spacing:0px;fill:#0d4365;fill-opacity:1;stroke:none;stroke-width:3.7446692"
           d="m 403.65793,58.746003 h 6.99005 v -80.944772 h -6.99005 z m 3.49502,-105.829355 c -1.95721,0 -3.49502,1.537821 -3.49502,3.495033 v 1.817414 c 0,1.957212 1.53781,3.495033 3.49502,3.495033 1.81741,0 3.49503,-1.537821 3.49503,-3.495033 v -1.817414 c 0,-1.957212 -1.67762,-3.495033 -3.49503,-3.495033 z" />
        <path
           inkscape:connector-curvature="0"
           id="path927"
           style="font-style:normal;font-variant:normal;font-weight:normal;font-stretch:normal;font-size:medium;line-height:1.25;font-family:Kirvy;-inkscape-font-specification:Kirvy;letter-spacing:0px;word-spacing:0px;fill:#0d4365;fill-opacity:1;stroke:none;stroke-width:3.7446692"
           d="m 457.23886,58.8858 c 7.54925,0 14.81891,-2.37662 20.13134,-6.710452 5.73184,-4.47363 8.80746,-10.485062 8.80746,-17.055718 V 1.5674009 c 0,-6.4308411 -2.93583,-12.4422909 -8.38805,-16.9159209 -5.17263,-4.333832 -12.02288,-6.710452 -19.29254,-6.710452 -9.50647,0 -18.31393,4.054238 -23.34676,10.904488 l -2.09701,2.7960115 5.59202,4.1940353 2.09703,-2.7960295 c 3.77462,-5.1726323 10.48506,-8.1084583 17.75472,-8.1084583 11.32388,0 20.69054,7.4094554 20.69054,16.6363259 v 4.6134264 c -0.13976,1.9572118 -0.5592,3.3552353 -1.5378,4.1940357 -1.25821,1.118411 -3.35523,1.118411 -3.35523,1.118411 h -17.05572 c -7.54925,0 -14.6791,2.376603 -20.13134,6.710436 -5.59204,4.473629 -8.66767,10.485079 -8.66767,16.91592 0,6.570656 3.07563,12.582088 8.66767,17.055718 5.45224,4.333832 12.58209,6.710452 20.13134,6.710452 z m 16.91592,-40.402479 c 0.699,0 2.79601,0 5.03283,-0.838817 V 35.11963 c 0,4.333832 -2.23682,8.388071 -6.15124,11.603491 -4.19402,3.215421 -9.78606,5.032835 -15.79751,5.032835 -6.01145,0 -11.60348,-1.817414 -15.79751,-5.032835 -3.91442,-3.21542 -6.01145,-7.269659 -6.01145,-11.603491 0,-4.333832 2.09703,-8.388053 6.01145,-11.463676 4.19403,-3.355218 9.78606,-5.172633 15.79751,-5.172633 z" />
        <path
           inkscape:connector-curvature="0"
           id="path929"
           style="font-style:normal;font-variant:normal;font-weight:normal;font-stretch:normal;font-size:medium;line-height:1.25;font-family:Kirvy;-inkscape-font-specification:Kirvy;letter-spacing:0px;word-spacing:0px;fill:#0d4365;fill-opacity:1;stroke:none;stroke-width:3.7446692"
           d="M 559.5404,58.746003 V 8.697245 c 0,-8.24825584 -3.07563,-15.9373058 -8.38805,-21.669144 -5.45225,-5.871653 -12.72191,-9.087073 -20.41096,-9.087073 -7.82884,0 -15.0985,3.21542 -20.55073,9.087073 -5.31245,5.7318382 -8.24827,13.42088816 -8.24827,21.669144 v 50.048758 h 6.99006 V 8.697245 c 0,-13.141294 9.64626,-23.76617 21.80894,-23.76617 12.02289,0 21.80896,10.624876 21.80896,23.76617 v 50.048758 z" />
        <path
           d="m 756.65119,-154.72227 c -4.2672,4.2672 -6.55885,9.87777 -6.55885,15.88346 v 10.43094 h 61.95343 v -3.95111 H 797.5847 c 0,0 -1.02729,0.079 -1.73849,-0.63218 -0.55316,-0.47414 -0.86925,-1.4224 -0.86925,-2.60774 v -3.23991 c 0,-6.00569 -2.29164,-11.61626 -6.55884,-15.88346 -4.2672,-4.2672 -9.87778,-6.55885 -15.88347,-6.55885 -6.00569,0 -11.61626,2.29165 -15.88346,6.55885 z m 34.92782,22.36329 h -37.53556 v -6.47983 c 0,-10.19386 8.29734,-18.4912 18.4912,-18.4912 10.19387,0 18.4912,8.29734 18.4912,18.4912 v 3.16089 c 0,1.26436 0.23707,2.37067 0.55316,3.31894 z"
           style="font-style:normal;font-variant:normal;font-weight:normal;font-stretch:normal;font-size:medium;line-height:1.25;font-family:Kirvy;-inkscape-font-specification:Kirvy;letter-spacing:0px;word-spacing:0px;fill:#0d4365;fill-opacity:1;stroke:none;stroke-width:2.11666679"
           id="path942"
           inkscape:connector-curvature="0" />
        <path
           d="m 750.09234,-99.401785 c 0,7.66516 3.31893,11.77431 6.16373,13.90791 l 1.58045,1.18534 2.37067,-3.16089 -1.58045,-1.18533 c -3.00284,-2.21263 -4.58329,-5.92667 -4.58329,-10.74703 0,-7.428085 6.71689,-13.670835 15.56738,-14.935195 0,0 1.65947,-0.39511 2.76578,0.79023 0.47413,0.47413 0.47413,1.34337 0.47413,1.4224 v 10.82604 c 0,4.899375 1.26436,9.008525 3.556,11.932355 2.1336,2.68675 5.13645,4.2672 8.29734,4.2672 3.00284,0 5.76862,-1.34338 7.8232,-3.87209 2.1336,-2.52871 3.23991,-6.00569 3.23991,-10.50996 0,-2.607725 -0.63218,-5.136435 -1.81751,-7.507105 -1.18534,-2.29164 -2.8448,-4.34622 -4.9784,-6.08471 -4.34623,-3.556 -10.03583,-5.45253 -16.04152,-5.45253 -3.31893,0 -5.29448,0.47413 -5.29448,0.47413 -4.03014,0.79022 -7.74418,2.44969 -10.74703,4.89938 -4.42524,3.63502 -6.79591,8.5344 -6.79591,13.749855 z m 41.72374,0 c 0,7.112 -3.63503,10.35191 -7.112,10.35191 -1.97556,0 -3.79307,-0.94826 -5.21547,-2.76577 -1.73849,-2.21263 -2.68676,-5.53156 -2.68676,-9.482665 v -10.74702 c 0,0 0.079,-1.26436 -0.31609,-2.29165 8.69245,1.34338 15.33032,7.50711 15.33032,14.935195 z"
           style="font-style:normal;font-variant:normal;font-weight:normal;font-stretch:normal;font-size:medium;line-height:1.25;font-family:Kirvy;-inkscape-font-specification:Kirvy;letter-spacing:0px;word-spacing:0px;fill:#0d4365;fill-opacity:1;stroke:none;stroke-width:2.11666679"
           id="path944"
           inkscape:connector-curvature="0" />
        <path
           d="m 750.01332,-61.820545 c 0,4.2672 1.34338,8.37636 3.79307,11.3792 2.52871,3.23991 5.92666,4.9784 9.64071,4.9784 h 18.96533 c 3.63502,0 7.03298,-1.65946 9.56169,-4.74133 2.44969,-2.92382 3.79307,-6.79591 3.79307,-10.90507 0,-5.37351 -2.29165,-10.35191 -6.16374,-13.19671 l -1.58044,-1.18533 -2.37067,3.16089 1.58045,1.18533 c 2.92382,2.1336 4.58329,5.92667 4.58329,10.03582 0,6.4008 -4.18818,11.69529 -9.40365,11.69529 h -2.60773 c -1.10631,-0.079 -1.89654,-0.31609 -2.37067,-0.86924 -0.63218,-0.7112 -0.63218,-1.89654 -0.63218,-1.89654 v -9.64071 c 0,-4.2672 -1.34337,-8.29733 -3.79306,-11.3792 -2.52871,-3.16089 -5.92667,-4.89938 -9.56169,-4.89938 -3.71405,0 -7.112,1.73849 -9.64071,4.89938 -2.44969,3.08187 -3.79307,7.112 -3.79307,11.3792 z m 22.83742,9.56169 c 0,0.39511 0,1.58045 0.47414,2.8448 h -9.87778 c -2.44969,0 -4.74134,-1.26435 -6.55885,-3.47698 -1.81751,-2.37066 -2.8448,-5.53155 -2.8448,-8.92951 0,-3.39795 1.02729,-6.55884 2.8448,-8.92951 1.81751,-2.21262 4.10916,-3.39795 6.55885,-3.39795 2.44969,0 4.74133,1.18533 6.47982,3.39795 1.89653,2.37067 2.92382,5.53156 2.92382,8.92951 z"
           style="font-style:normal;font-variant:normal;font-weight:normal;font-stretch:normal;font-size:medium;line-height:1.25;font-family:Kirvy;-inkscape-font-specification:Kirvy;letter-spacing:0px;word-spacing:0px;fill:#0d4365;fill-opacity:1;stroke:none;stroke-width:2.11666679"
           id="path946"
           inkscape:connector-curvature="0" />
        <path
           d="m 756.65119,-31.713075 c -4.2672,4.2672 -6.55885,9.87777 -6.55885,15.88346 v 10.4309404 h 61.95343 v -3.95111 H 797.5847 c 0,0 -1.02729,0.079 -1.73849,-0.63218 -0.55316,-0.4741304 -0.86925,-1.4224004 -0.86925,-2.6077304 v -3.23992 c 0,-6.00569 -2.29164,-11.61626 -6.55884,-15.88346 -4.2672,-4.2672 -9.87778,-6.55885 -15.88347,-6.55885 -6.00569,0 -11.61626,2.29165 -15.88346,6.55885 z m 34.92782,22.3632904 h -37.53556 v -6.4798304 c 0,-10.19386 8.29734,-18.4912 18.4912,-18.4912 10.19387,0 18.4912,8.29734 18.4912,18.4912 v 3.16089 c 0,1.26436 0.23707,2.37067 0.55316,3.3189404 z"
           style="font-style:normal;font-variant:normal;font-weight:normal;font-stretch:normal;font-size:medium;line-height:1.25;font-family:Kirvy;-inkscape-font-specification:Kirvy;letter-spacing:0px;word-spacing:0px;fill:#0d4365;fill-opacity:1;stroke:none;stroke-width:2.11666679"
           id="path948"
           inkscape:connector-curvature="0" />
        <path
           inkscape:connector-curvature="0"
           id="path952"
           style="font-style:normal;font-variant:normal;font-weight:normal;font-stretch:normal;font-size:medium;line-height:1.25;font-family:Kirvy;-inkscape-font-specification:Kirvy;letter-spacing:0px;word-spacing:0px;fill:#0d4365;fill-opacity:1;stroke:none;stroke-width:2.11666679"
           d="m 903.83198,-154.59181 c 4.2672,4.2672 9.87777,6.55885 15.88346,6.55885 h 10.43094 v -61.95343 h -3.95111 v 14.46107 c 0,0 0.079,1.02729 -0.63218,1.73849 -0.47414,0.55316 -1.4224,0.86925 -2.60774,0.86925 h -3.23991 c -6.00569,0 -11.61626,2.29164 -15.88346,6.55884 -4.2672,4.2672 -6.55885,9.87778 -6.55885,15.88347 0,6.00569 2.29165,11.61626 6.55885,15.88346 z m 22.36329,-34.92782 v 37.53556 h -6.47983 c -10.19386,0 -18.4912,-8.29734 -18.4912,-18.4912 0,-10.19387 8.29734,-18.4912 18.4912,-18.4912 h 3.16089 c 1.26436,0 2.37067,-0.23707 3.31894,-0.55316 z" />
        <path
           inkscape:connector-curvature="0"
           id="path954"
           style="font-style:normal;font-variant:normal;font-weight:normal;font-stretch:normal;font-size:medium;line-height:1.25;font-family:Kirvy;-inkscape-font-specification:Kirvy;letter-spacing:0px;word-spacing:0px;fill:#0d4365;fill-opacity:1;stroke:none;stroke-width:2.11666679"
           d="m 959.15247,-148.03296 c 7.66516,0 11.77431,-3.31893 13.90791,-6.16373 l 1.18534,-1.58045 -3.16089,-2.37067 -1.18533,1.58045 c -2.21263,3.00284 -5.92667,4.58329 -10.74703,4.58329 -7.42809,0 -13.67084,-6.71689 -14.9352,-15.56738 0,0 -0.39511,-1.65947 0.79023,-2.76578 0.47413,-0.47413 1.34337,-0.47413 1.4224,-0.47413 h 10.82604 c 4.89938,0 9.00853,-1.26436 11.93236,-3.556 2.68675,-2.1336 4.2672,-5.13645 4.2672,-8.29734 0,-3.00284 -1.34338,-5.76862 -3.87209,-7.8232 -2.52871,-2.1336 -6.00569,-3.23991 -10.50996,-3.23991 -2.60773,0 -5.13644,0.63218 -7.50711,1.81751 -2.29164,1.18534 -4.34622,2.8448 -6.08471,4.9784 -3.556,4.34623 -5.45253,10.03583 -5.45253,16.04152 0,3.31893 0.47413,5.29448 0.47413,5.29448 0.79022,4.03014 2.44969,7.74418 4.89938,10.74703 3.63502,4.42524 8.5344,6.79591 13.74986,6.79591 z m 0,-41.72374 c 7.112,0 10.35191,3.63503 10.35191,7.112 0,1.97556 -0.94826,3.79307 -2.76577,5.21547 -2.21263,1.73849 -5.53156,2.68676 -9.48267,2.68676 h -10.74702 c 0,0 -1.26436,-0.079 -2.29165,0.31609 1.34338,-8.69245 7.50711,-15.33032 14.9352,-15.33032 z" />
        <path
           inkscape:connector-curvature="0"
           id="path956"
           style="font-style:normal;font-variant:normal;font-weight:normal;font-stretch:normal;font-size:medium;line-height:1.25;font-family:Kirvy;-inkscape-font-specification:Kirvy;letter-spacing:0px;word-spacing:0px;fill:#0d4365;fill-opacity:1;stroke:none;stroke-width:2.11666679"
           d="m 996.73371,-147.95394 c 4.26719,0 8.37639,-1.34338 11.37919,-3.79307 3.2399,-2.52871 4.9784,-5.92666 4.9784,-9.64071 v -18.96533 c 0,-3.63502 -1.6595,-7.03298 -4.7413,-9.56169 -2.9238,-2.44969 -6.7959,-3.79307 -10.90509,-3.79307 -5.37351,0 -10.35191,2.29165 -13.19671,6.16374 l -1.18533,1.58044 3.16089,2.37067 1.18533,-1.58045 c 2.1336,-2.92382 5.92667,-4.58329 10.03582,-4.58329 6.40079,0 11.69529,4.18818 11.69529,9.40365 v 2.60773 c -0.079,1.10631 -0.3161,1.89654 -0.8692,2.37067 -0.7112,0.63218 -1.8966,0.63218 -1.8966,0.63218 h -9.64069 c -4.2672,0 -8.29733,1.34337 -11.3792,3.79306 -3.16089,2.52871 -4.89938,5.92667 -4.89938,9.56169 0,3.71405 1.73849,7.112 4.89938,9.64071 3.08187,2.44969 7.112,3.79307 11.3792,3.79307 z m 9.56169,-22.83742 c 0.3951,0 1.5805,0 2.8448,-0.47414 v 9.87778 c 0,2.44969 -1.2644,4.74134 -3.477,6.55885 -2.3706,1.81751 -5.5315,2.8448 -8.92949,2.8448 -3.39795,0 -6.55884,-1.02729 -8.92951,-2.8448 -2.21262,-1.81751 -3.39795,-4.10916 -3.39795,-6.55885 0,-2.44969 1.18533,-4.74133 3.39795,-6.47982 2.37067,-1.89653 5.53156,-2.92382 8.92951,-2.92382 z" />
        <path
           inkscape:connector-curvature="0"
           id="path958"
           style="font-style:normal;font-variant:normal;font-weight:normal;font-stretch:normal;font-size:medium;line-height:1.25;font-family:Kirvy;-inkscape-font-specification:Kirvy;letter-spacing:0px;word-spacing:0px;fill:#0d4365;fill-opacity:1;stroke:none;stroke-width:2.11666679"
           d="m 1026.8412,-154.59181 c 4.2672,4.2672 9.8778,6.55885 15.8834,6.55885 h 10.431 v -61.95343 h -3.9511 v 14.46107 c 0,0 0.079,1.02729 -0.6322,1.73849 -0.4741,0.55316 -1.4224,0.86925 -2.6077,0.86925 h -3.24 c -6.0056,0 -11.6162,2.29164 -15.8834,6.55884 -4.2672,4.2672 -6.5589,9.87778 -6.5589,15.88347 0,6.00569 2.2917,11.61626 6.5589,15.88346 z m 22.3633,-34.92782 v 37.53556 h -6.4799 c -10.1938,0 -18.4912,-8.29734 -18.4912,-18.4912 0,-10.19387 8.2974,-18.4912 18.4912,-18.4912 h 3.1609 c 1.2644,0 2.3707,-0.23707 3.319,-0.55316 z" />
        <path
           inkscape:connector-curvature="0"
           id="path962"
           style="font-style:normal;font-variant:normal;font-weight:normal;font-stretch:normal;font-size:medium;line-height:1.25;font-family:Kirvy;-inkscape-font-specification:Kirvy;letter-spacing:0px;word-spacing:0px;fill:#0d4365;fill-opacity:1;stroke:none;stroke-width:2.11666679"
           d="m 931.15823,-54.18296 h 3.95111 v -45.75387 h -3.95111 z m 1.97555,-59.81983 c -1.10631,0 -1.97555,0.86925 -1.97555,1.97556 v 1.02729 c 0,1.10631 0.86924,1.97556 1.97555,1.97556 1.02729,0 1.97556,-0.86925 1.97556,-1.97556 v -1.02729 c 0,-1.10631 -0.94827,-1.97556 -1.97556,-1.97556 z" />
        <path
           inkscape:connector-curvature="0"
           id="path964"
           style="font-style:normal;font-variant:normal;font-weight:normal;font-stretch:normal;font-size:medium;line-height:1.25;font-family:Kirvy;-inkscape-font-specification:Kirvy;letter-spacing:0px;word-spacing:0px;fill:#0d4365;fill-opacity:1;stroke:none;stroke-width:2.11666679"
           d="m 961.44474,-54.10394 c 4.2672,0 8.37636,-1.34338 11.3792,-3.79307 3.23991,-2.52871 4.9784,-5.92666 4.9784,-9.64071 v -18.96533 c 0,-3.63502 -1.65947,-7.03298 -4.74133,-9.56169 -2.92382,-2.44969 -6.79591,-3.79307 -10.90507,-3.79307 -5.37351,0 -10.35191,2.29165 -13.19671,6.16374 l -1.18533,1.58044 3.16088,2.37067 1.18534,-1.58045 c 2.1336,-2.92382 5.92666,-4.58329 10.03582,-4.58329 6.4008,0 11.69529,4.18818 11.69529,9.40365 v 2.60773 c -0.079,1.10631 -0.31609,1.89654 -0.86924,2.37067 -0.7112,0.63218 -1.89654,0.63218 -1.89654,0.63218 h -9.64071 c -4.2672,0 -8.29733,1.34337 -11.3792,3.79306 -3.16089,2.52871 -4.89938,5.92667 -4.89938,9.56169 0,3.71405 1.73849,7.112 4.89938,9.64071 3.08187,2.44969 7.112,3.79307 11.3792,3.79307 z m 9.56169,-22.83742 c 0.39511,0 1.58044,0 2.8448,-0.47414 v 9.87778 c 0,2.44969 -1.26436,4.74134 -3.47698,6.55885 -2.37066,1.81751 -5.53155,2.8448 -8.92951,2.8448 -3.39796,0 -6.55884,-1.02729 -8.92951,-2.8448 -2.21262,-1.81751 -3.39796,-4.10916 -3.39796,-6.55885 0,-2.44969 1.18534,-4.74133 3.39796,-6.47982 2.37067,-1.89653 5.53155,-2.92382 8.92951,-2.92382 z" />
        <path
           inkscape:connector-curvature="0"
           id="path966"
           style="font-style:normal;font-variant:normal;font-weight:normal;font-stretch:normal;font-size:medium;line-height:1.25;font-family:Kirvy;-inkscape-font-specification:Kirvy;letter-spacing:0px;word-spacing:0px;fill:#0d4365;fill-opacity:1;stroke:none;stroke-width:2.11666679"
           d="m 1019.2705,-54.18296 v -28.28996 c 0,-4.66231 -1.7385,-9.00853 -4.7413,-12.24844 -3.0819,-3.31894 -7.1911,-5.13645 -11.5373,-5.13645 -4.42524,0 -8.5344,1.81751 -11.61626,5.13645 -3.00285,3.23991 -4.66232,7.58613 -4.66232,12.24844 v 28.28996 h 3.95112 v -28.28996 c 0,-7.42809 5.45253,-13.43378 12.32746,-13.43378 6.7959,0 12.3275,6.00569 12.3275,13.43378 v 28.28996 z" />
      </g>
    </g>
  </g>
</svg>
